<svg xmlns="http://www.w3.org/2000/svg" xmlns:xlink="http://www.w3.org/1999/xlink" xmlns:serif="http://www.serif.com/" width="100%" height="100%" viewBox="0 0 4725 4725" xml:space="preserve" style="fill-rule:evenodd;clip-rule:evenodd;stroke-linejoin:round;stroke-miterlimit:1.5;"><path d="M3503.32,1573.05c641.173,799.575 688.766,1442.12 688.766,1632.15c0,35.354 0.029,55.31 0.035,57.328c-151.302,-30.048 -172.198,-123.826 -172.198,-123.826l-4.21,-49.311c-4.556,-49.773 -12.757,-110.907 -27.135,-182.019c-17.735,-7.844 -168.23,-70.478 -313.055,0.807l0,354.176c-151.302,-30.048 -172.203,-123.653 -172.203,-123.653l0,-1565.65Zm172.203,1162.92c0,-0 110.89,-71.805 264.482,-20.705c-50.742,-168.091 -132.679,-369.789 -264.482,-594.971l0,615.676Z" style="stroke:#000;stroke-width:1.85px;"></path><path d="M3072.45,2253.11c61.135,103.294 190.152,321.533 213.625,363.923c49.138,88.703 119.674,212.183 -10.554,646.122c-0,-0 -24.743,-371.594 -133.054,-563.475c-51.792,-91.644 -109.581,-191.708 -155.72,-271.183l-0,638.97c-0,-0 -20.936,147.357 -172.215,194.765l0,-2390.13l0.923,0.75c57.097,48.619 113.33,98.277 168.581,148.972l2.711,2.48l-0,1082.43c14.188,-8.479 172.388,-94.817 172.157,-223.833c-0.058,-62.461 -0.058,-292.004 -0.058,-400.258l0.058,0l-0,-293.157c60.904,61.077 118.232,121.519 172.214,181.327l0,556.554c-0.288,80.686 -103.063,237.156 -258.668,325.743Z" style="stroke:#000;stroke-width:1.85px;stroke-miterlimit:2;"></path><path d="M2362.23,535.348c-0,-0 327.242,139.744 290.273,465.198c-0,0 -34.432,229.197 23.012,250.594c64.133,23.819 -172.907,34.777 -174.752,-259.995c-0,0 11.88,-203.935 -136.572,-287.504c-0.808,0.173 -1.5,0.346 -1.904,0.461c-5.767,1.326 -86.165,64.999 -86.165,64.999l0,2317.34c0,-0 2.192,0.288 46.947,-0c66.613,-0.404 138.187,-172.1 213.048,-248.056c74.918,-75.957 223.602,28.491 189.863,28.491c-33.74,-0 -48.504,4.21 -176.137,207.799c-78.09,124.518 -193.208,187.671 -273.721,187.729c-53.983,0.058 -93.432,-12.919 -126.594,-39.91c-51.791,-42.102 -45.62,-135.938 -45.62,-135.938l-0,-2355.87l1.326,-1.096c55.079,-43.602 111.946,-87.376 170.888,-131.151l84.435,-61.942l1.673,-1.153Z" style="stroke:#000;stroke-width:1.85px;"></path><path d="M1393.31,1370.82c146.146,-161.902 316.977,-328.874 516.586,-498.707l0,945.617c-0.346,87.549 -121.346,264.378 -299.501,346.852c94.067,47.062 328.569,201.974 325.57,575.355c-3.633,442.994 100.064,484.404 146.146,522.238c-0,0 -285.198,22.032 -316.054,-354.233c-19.436,-237.79 -21.512,-415.368 -172.156,-566.071c-11.074,-11.073 -20.475,-21.57 -28.376,-31.605l-0,820.759c-0,-0 -20.936,99.372 -172.215,131.323l0,-1891.53Zm172.215,626.276l-0,-561.669c53.983,-58.153 111.368,-116.923 172.157,-176.223c-0,-0 -0.173,383.203 -0,514.117c0.231,129.017 -157.969,215.297 -172.157,223.775Z" style="stroke:#000;stroke-width:1.85px;stroke-miterlimit:2;"></path><path d="M1221.08,3138.59c-0,-0 -20.901,93.605 -172.203,123.653l-0,-354.176c-144.82,-71.285 -295.32,-8.651 -313.055,-0.808c-14.372,71.112 -22.573,132.247 -27.135,182.019l-4.205,49.312c0,-0 -20.901,93.778 -172.203,123.826c0.006,-2.019 0.035,-21.974 0.035,-57.328c-0,-190.036 47.592,-832.57 688.766,-1632.15l-0,1565.65Zm-172.203,-1018.41c-34.91,59.779 -68.038,120.579 -98.952,182.521c-50.078,100.33 -94.51,203.538 -131.779,309.323c-12.008,34.085 -23.231,68.402 -33.71,103.006l-0.041,0.115c153.592,-51.099 264.482,20.705 264.482,20.705l-0,-615.67Z" style="stroke:#000;stroke-width:1.85px;"></path><path d="M4117.72,3423.09c-0,-12.476 -10.137,-22.638 -22.642,-22.638l-3483.78,-0c-12.505,-0 -22.716,10.162 -22.716,22.638l0,45.346c0,12.476 10.211,22.639 22.716,22.639l3483.78,-0c12.505,-0 22.642,-10.163 22.642,-22.639l-0,-45.346Z"></path><path d="M4117.2,4116.76c-0,-13.268 -10.803,-24.076 -24.122,-24.076l-3480.89,0c-13.319,0 -24.122,10.808 -24.122,24.076l0,48.227c0,13.268 10.803,24.076 24.122,24.076l3480.89,-0c13.319,-0 24.122,-10.808 24.122,-24.076l-0,-48.227Z"></path><g id="Calque1"><path d="M799.809,3775.27c22.408,7.283 39.774,19.047 52.659,35.293c12.885,16.806 19.047,37.534 19.047,61.623c-0,34.172 -13.445,60.502 -39.775,78.988c-26.889,18.487 -66.104,28.011 -117.082,28.011l-202.794,-0l-0,-392.143l191.59,-0c47.617,-0 84.59,8.963 110.36,27.45c25.209,18.487 38.094,43.136 38.094,74.507c-0,19.047 -4.482,35.853 -13.445,50.979c-9.524,15.125 -22.408,26.889 -38.654,35.292Zm-197.752,-119.883l-0,92.433l90.193,0c22.408,0 39.214,-3.921 50.978,-11.764c11.764,-7.843 17.366,-19.607 17.366,-34.733c0,-15.125 -5.602,-26.889 -17.366,-34.732c-11.764,-7.283 -28.57,-11.204 -50.978,-11.204l-90.193,-0Zm105.878,255.453c24.089,-0 42.016,-3.922 54.34,-11.765c11.764,-7.842 17.927,-20.167 17.927,-36.413c-0,-32.492 -24.089,-48.738 -72.267,-48.738l-105.878,0l-0,96.916l105.878,-0Z" style="fill-rule:nonzero;"></path><path d="M1157.76,3979.18l-75.627,-109.24l-83.471,-0l0,109.24l-90.753,-0l0,-392.143l169.742,-0c34.733,-0 64.984,5.602 90.753,17.366c25.209,11.764 44.816,28.01 58.822,49.298c14.005,21.288 20.727,46.497 20.727,75.628c0,29.13 -6.722,54.339 -20.727,75.067c-14.566,21.288 -34.173,37.534 -59.942,48.738l87.952,126.046l-97.476,-0Zm-1.68,-249.851c-0,-21.848 -7.283,-39.215 -21.288,-50.979c-14.005,-11.764 -34.733,-17.366 -62.183,-17.366l-73.947,-0l0,136.69l73.947,-0c27.45,-0 48.178,-6.163 62.183,-17.927c14.005,-11.764 21.288,-28.57 21.288,-50.418Z" style="fill-rule:nonzero;"></path><path d="M1590.82,3906.36l-0,72.827l-303.631,-0l0,-392.143l296.348,-0l0,72.826l-206.155,0l0,85.151l182.066,0l0,70.586l-182.066,0l0,90.753l213.438,0Z" style="fill-rule:nonzero;"></path><path d="M2217.67,3587.04l-128.287,392.143l-97.475,-0l-86.272,-265.537l-89.072,265.537l-96.915,-0l-128.847,-392.143l94.114,-0l88.512,275.62l92.434,-275.62l84.03,-0l89.633,277.861l91.313,-277.861l86.832,-0Z" style="fill-rule:nonzero;"></path><rect x="2235.6" y="3587.04" width="90.753" height="392.143"></rect><path d="M2746.52,3587.04l-0,392.143l-74.507,-0l-195.512,-238.087l0,238.087l-89.632,-0l-0,-392.143l75.067,-0l194.951,238.087l0,-238.087l89.633,-0Z" style="fill-rule:nonzero;"></path><path d="M3071.95,3776.95l82.91,-0l0,159.098c-21.287,16.246 -45.936,28.57 -73.947,36.973c-28.01,8.403 -56.02,12.885 -84.59,12.885c-40.895,0 -77.309,-8.963 -109.8,-26.329c-32.492,-17.367 -57.701,-41.456 -76.188,-72.267c-18.487,-30.811 -28.01,-65.544 -28.01,-104.198c-0,-38.654 9.523,-73.947 28.01,-104.758c18.487,-30.811 43.696,-54.34 76.748,-72.266c33.052,-17.367 70.025,-25.77 110.92,-25.77c34.173,0 65.544,5.602 93.554,17.367c28.011,11.764 51.539,28.57 70.586,50.418l-58.261,53.78c-28.01,-29.691 -61.623,-44.256 -101.397,-44.256c-25.209,-0 -47.057,5.041 -66.664,15.685c-19.608,10.644 -34.733,25.209 -45.377,44.256c-10.644,19.047 -16.246,40.895 -16.246,65.544c0,24.089 5.602,45.937 16.246,64.984c10.644,19.047 25.769,34.172 45.377,44.256c19.047,10.644 40.894,16.246 65.543,16.246c26.33,-0 49.859,-5.602 70.586,-16.806l0,-114.842Z" style="fill-rule:nonzero;"></path><path d="M3520.15,3985.91c-39.775,0 -76.188,-8.963 -108.12,-26.329c-32.491,-17.367 -57.701,-41.456 -76.187,-72.267c-18.487,-30.811 -28.011,-65.544 -28.011,-104.198c0,-38.654 9.524,-73.947 28.011,-104.758c18.486,-30.811 43.696,-54.34 76.187,-72.266c31.932,-17.367 68.345,-25.77 108.68,-25.77c34.172,0 64.984,6.163 92.434,17.927c26.889,11.764 50.418,29.131 68.905,51.539l-58.261,53.779c-26.33,-30.811 -59.382,-45.936 -98.596,-45.936c-24.089,-0 -45.937,5.041 -64.984,15.685c-19.047,10.644 -33.612,25.77 -44.256,44.817c-10.644,19.047 -16.246,40.894 -16.246,64.983c-0,24.089 5.602,45.937 16.246,64.984c10.644,19.047 25.209,34.172 44.256,44.256c19.047,10.644 40.895,16.246 64.984,16.246c39.214,-0 72.266,-15.686 98.596,-46.497l58.261,53.78c-18.487,22.968 -42.016,40.334 -69.466,52.099c-27.45,11.764 -58.261,17.926 -92.433,17.926Z" style="fill-rule:nonzero;"></path><path d="M3892.13,3985.91c-40.895,0 -77.308,-8.963 -109.8,-26.329c-33.052,-17.367 -58.261,-42.016 -76.748,-72.827c-18.487,-30.811 -28.01,-64.984 -28.01,-103.638c-0,-38.654 9.523,-73.386 28.01,-104.198c18.487,-30.811 43.696,-54.9 76.748,-72.266c32.492,-17.366 68.905,-26.33 109.8,-26.33c40.895,0 77.308,8.964 109.8,26.33c32.492,17.366 58.261,41.455 76.748,72.266c18.487,30.812 28.01,65.544 28.01,104.198c0,38.654 -9.523,72.827 -28.01,103.638c-18.487,30.811 -44.256,55.46 -76.748,72.827c-32.492,17.366 -68.905,26.329 -109.8,26.329Zm-0,-77.308c22.968,-0 44.256,-5.602 62.743,-16.246c18.487,-10.084 33.612,-25.209 44.256,-44.256c10.084,-19.047 15.686,-40.895 15.686,-64.984c-0,-24.089 -5.602,-45.936 -15.686,-64.983c-10.644,-19.047 -25.769,-34.173 -44.256,-44.817c-18.487,-10.644 -39.775,-15.685 -62.743,-15.685c-22.968,-0 -44.256,5.041 -62.743,15.685c-18.487,10.644 -33.052,25.77 -43.696,44.817c-10.644,19.047 -16.246,40.894 -16.246,64.983c0,24.089 5.602,45.937 16.246,64.984c10.644,19.047 25.209,34.172 43.696,44.256c18.487,10.644 39.775,16.246 62.743,16.246Z" style="fill-rule:nonzero;"></path><path d="M4158.21,3983.66c-15.126,0 -28.01,-5.042 -38.654,-15.685c-10.644,-10.644 -15.686,-23.529 -15.686,-39.215c0,-16.246 5.042,-29.13 15.686,-39.214c10.644,-9.523 23.528,-14.565 38.654,-14.565c15.125,-0 28.01,5.042 38.654,14.565c10.644,10.084 15.686,22.968 15.686,39.214c-0,15.686 -5.042,28.571 -15.686,39.215c-10.644,10.643 -23.529,15.685 -38.654,15.685Z" style="fill-rule:nonzero;"></path></g></svg>