<?xml version="1.0" encoding="UTF-8"?>
<svg id="Ebene_2" data-name="Ebene 2" xmlns="http://www.w3.org/2000/svg" viewBox="0 0 749.17 162.26">
  <defs>
    <style>
      .cls-1 {
        fill: #1d1d1c;
        stroke-width: 0px;
      }
    </style>
  </defs>
  <g id="Aquarell_in_Vektoren" data-name="Aquarell in Vektoren">
    <path class="cls-1" d="m740.33,29.16c-6.62,0-12.53,2.01-17.69,6.06-5.19,4.05-9.21,8.89-12.09,14.51-.21-3.53-.84-7.27-1.88-11.16-1.03-3.9-2.4-7.06-4.09-9.41l-40.54,2.61v4.79c3.46,0,6.08,1.25,7.86,3.79,1.78,2.56,2.69,6.08,2.69,10.58v51.62c0,9.75-3.51,14.74-10.54,15v4.86h57.78v-4.86c-4.46-.36-7.44-2.06-8.97-5.14-1.53-3.06-2.3-6.32-2.3-9.79v-29.44c0-7.31,1.82-12.9,5.47-16.8,3.65-3.91,8-5.87,12.99-5.87,5.27,0,9.81,1.86,13.57,5.61l6.59-25.04c-2.78-1.29-5.71-1.93-8.84-1.93Zm-196.09,50.81c-1.7-5.3-5.35-9.48-10.89-12.54-5.54-3.05-13.06-5.86-22.61-8.45-9.55-2.57-16.06-4.53-19.51-5.86-3.47-1.32-5.18-3.42-5.18-6.3.39-1.78,2-3.24,4.82-4.35,2.77-1.11,6.2-1.65,10.23-1.65,3.78,0,7.54.57,11.33,1.68,3.77,1.13,7.22,2.9,10.32,5.33,3.09,2.45,5.38,5.43,6.88,9.01l3.67-.67-.95-27c-1.44.83-4.06,1.49-7.86,1.93-.84-.03-4.69-.52-11.5-1.48-6.83-.95-12.75-1.44-17.8-1.44-9.57,0-17.83,1.41-24.84,4.22-7,2.81-12.33,6.46-15.99,10.94-3.66,4.51-5.63,9.21-5.87,14.07,0,.76-.16,1.49-.41,2.24.13,7.5,2.85,13.03,8.16,16.66,5.34,3.61,13.49,6.58,24.46,8.96,10.98,2.38,18.27,4.18,21.89,5.41,3.63,1.21,5.42,3.79,5.42,7.72,0,1.11-.12,2-.39,2.72-.57,2.4-3.28,4.73-8.08,6.98-4.81,2.26-10.01,3.46-15.64,3.65-4.57-.15-8.96-1.05-13.07-2.7-4.11-1.64-7.91-4.35-11.3-8.15-3.44-3.78-6.08-8.71-7.98-14.77l-3.85.75,2.73,37.52c1.32-2.53,4.07-3.78,8.21-3.78,2.81,0,7.95.77,15.42,2.36,7.43,1.6,13.17,2.4,17.14,2.4,12.38,0,22.61-2.08,30.7-6.16,8.09-4.09,13.95-9.13,17.61-15.12,3.65-5.98,5.45-11.8,5.45-17.45,0-1.97-.23-4.18-.72-6.64Zm-222.15-50.81c-6.64,0-12.54,2.01-17.71,6.06-5.18,4.05-9.23,8.89-12.09,14.51-.21-3.53-.84-7.27-1.89-11.16-1.04-3.9-2.4-7.06-4.09-9.41l-40.53,2.61v4.79c3.48,0,6.08,1.25,7.87,3.79,1.77,2.56,2.68,6.08,2.68,10.58v51.62c0,9.75-3.51,14.74-10.54,15v4.86h57.8v-4.86c-4.46-.36-7.47-2.06-9-5.14-1.54-3.06-2.29-6.32-2.29-9.79v-29.44c0-7.31,1.82-12.9,5.47-16.8,3.66-3.91,7.99-5.87,12.98-5.87,5.27,0,9.83,1.86,13.58,5.61l6.6-25.04c-2.8-1.29-5.73-1.93-8.84-1.93Zm-125.34,1.93v4.62c5.71,0,8.55,2.28,8.55,6.84,0,2.24-.63,4.9-1.88,7.98l-13.78,35.51-12.38-32.57c-.32-.92-.89-2.36-1.72-4.35-.83-2-1.44-3.54-1.82-4.62-.39-1.09-.68-2.24-.83-3.41.39-3.58,3.61-5.38,9.72-5.38v-4.62h-62.04v4.65c2.54,0,4.63.41,6.23,1.25,1.65.83,3.17,2.33,4.66,4.5,1.46,2.17,3.21,5.33,5.19,9.55l26.88,58.33c2.54,5.57,3.81,10.65,3.81,15.3,0,6.51-1.85,11.62-5.61,15.42-3.73,3.78-7.98,5.65-12.7,5.65-6.74,0-10.11-4.58-10.11-13.79l-4.02-1.49-11.28,24.31c7.56,5.01,15.36,7.51,23.51,7.51,6.8,0,13.1-1.89,18.87-5.7,5.71-3.79,10.12-9.16,13.15-16.06l40.28-90.64c1.6-3.79,3.91-7.08,6.96-9.89,3.01-2.85,6.04-4.25,9.05-4.25v-4.63h-38.7ZM71.06,0H0v4.77c5.91.39,9.96,4.17,9.96,17.84v77.87c0,11.4-3.32,17.08-9.96,17.08v4.86h61.01v-4.86c-8.03,0-12.08-6.06-12.08-18.15v-17.87c15.39-1.33,39.3,3.16,56.32-10.84C124.82,54.63,113.16-.16,71.06,0Zm-22.13,63.8V14.94c.29-5.3,29-6.1,31.71,26.44,2.49,29.25-31.71,31.69-31.71,22.42Zm592.54,39.5c-6.3,4.14-12.83,6.31-19.69,6.48-7.34-.23-13.77-2.86-19.23-7.95-5.5-5.1-8.95-12.62-10.42-22.57l69.26-13.97c-.81-7.9-3.74-14.66-8.68-20.32-4.97-5.66-11.24-9.87-18.76-12.65-7.5-2.77-15.59-4.17-24.22-4.17-9.79,0-19.07,1.81-27.81,5.47-8.77,3.66-15.87,9.12-21.28,16.38-5.42,7.27-8.13,15.94-8.13,25.99.32,8.23,2.48,16.02,6.47,23.37,3.99,7.36,10.41,13.45,19.24,18.25,8.8,4.81,20.06,7.38,33.79,7.72,5.23,0,10.84-.52,16.76-1.52,5.96-1,9.67-1.52,11.18-1.52,2.69,0,5.02.69,6.91,2.06l11.81-35.78-3.58-1.33c-2.78,6.56-7.35,11.89-13.62,16.03Zm-46.47-52.94c2.53-5.09,6.74-7.6,12.61-7.6,4.09,0,7.59,1.54,10.52,4.69,2.94,3.16,4.41,7.79,4.41,13.94l-31.35,6.15c0-6.36,1.28-12.08,3.82-17.18Zm-162.84,63.18c-1.77-2.68-2.62-5.73-2.62-9.19v-46.05c0-5.7-.87-10.7-2.61-15.02-1.76-4.31-5.39-7.92-10.9-10.8-5.49-2.88-13.42-4.31-23.77-4.31-6.94,0-12.9.41-17.85,1.22-4.94.81-10,1.88-15.18,3.2-5.22,1.3-8.69,2.01-10.49,2.1-3.16-.44-5.51-1.58-7.12-3.37l-4.23,33.62,4.23.39c3.18-7.24,7.86-12.81,14.09-16.74,6.22-3.89,13.26-5.83,21.14-5.83,5.39,0,9.53,1.38,12.41,4.17,2.88,2.81,4.31,7.64,4.31,14.53-8.89,1.72-16.28,3.26-22.11,4.65-5.83,1.36-12.14,3.54-18.96,6.48-6.82,2.97-12.49,6.9-17.03,11.82-4.54,4.91-6.8,10.88-6.8,17.91.27,4.67,1.74,8.68,4.39,12.05,2.65,3.37,6.16,5.92,10.52,7.67,4.37,1.74,9.17,2.6,14.43,2.6,6.4,0,12.71-1.25,19-3.77,6.3-2.53,11.84-6.18,16.56-10.96,1.66,5.69,3.97,9.85,6.94,12.52h39.61v-4.86c-3.53,0-6.2-1.36-7.95-4.02Zm-41.03-22.37c-1.6,5.06-3.75,8.79-6.43,11.2-2.69,2.38-5.65,3.66-8.89,3.79-3.5-.59-6.16-1.68-7.94-3.24-1.78-1.58-2.86-3.95-3.26-7.1.16-3.45,1.49-6.91,3.99-10.45,2.5-3.54,5.92-6.51,10.31-8.93,4.34-2.45,9.25-3.82,14.66-4.13,0,7.51-.8,13.77-2.44,18.85Z"/>
  </g>
</svg>